<?xml version="1.0" encoding="utf-8"?>
<!-- Generator: Adobe Illustrator 27.0.0, SVG Export Plug-In . SVG Version: 6.00 Build 0)  -->
<svg version="1.1" id="Layer_1" xmlns="http://www.w3.org/2000/svg" xmlns:xlink="http://www.w3.org/1999/xlink" x="0px" y="0px"
	 viewBox="0 0 1024 1024" style="enable-background:new 0 0 1024 1024;" xml:space="preserve">
<style type="text/css">
	.st0{fill:none;}
	.st1{fill:none;stroke:#231F20;stroke-width:57;stroke-miterlimit:10;}
	.st2{fill:#231F20;stroke:#231F20;stroke-width:57;stroke-miterlimit:10;}
</style>
<rect class="st0" width="1024" height="1024"/>
<g>
	<path class="st1" d="M886.2,81.5L695.4,52.7L415,828.4l350.8,52.9c60.2,9.1,116.4-32.4,125.4-92.6l87.7-581.8
		C987.9,146.7,946.4,90.5,886.2,81.5L886.2,81.5z"/>
	<path class="st2" d="M853,235.6l-212.2-32L612.5,282l240.5-46C853.2,236,853.2,235.7,853,235.6L853,235.6z"/>
</g>
<g>
	<path class="st1" d="M139.1,181.4c-60.8,3.1-107.6,54.9-104.5,115.7l29.8,587.6c3.1,60.8,54.9,107.6,115.7,104.5l156.6-7.9
		l120.6-816L139.1,181.4L139.1,181.4z"/>
	<path class="st2" d="M156.8,338.2c-0.2,0-0.3,0.3-0.1,0.4l263.2,77.9l13.7-92.3L156.8,338.2L156.8,338.2z"/>
</g>
</svg>